<?xml version="1.0" encoding="UTF-8"?>
<svg id="Layer_2" data-name="Layer 2" xmlns="http://www.w3.org/2000/svg" viewBox="0 0 208.68 145.59">
  <defs>
    <style>
      .cls-1 {
        fill: #e8e62a;
      }
    </style>
  </defs>
  <g id="Layer_1-2" data-name="Layer 1">
    <path class="cls-1" d="M0,145.59l16.38-43.68h55.2c33.16.41,55.1-14.56,65.82-44.89,0-.4.61-2.02,1.82-4.85h49.14l-10.31,26.08c-7.28,18.4-20.12,34.23-38.52,47.47-18.4,13.25-36.81,19.87-55.2,19.87H0ZM68.55,19.72C86.95,6.57,105.45,0,124.05,0h84.62l-17.89,46.1h-64.3c-11.73,0-22.55,3.79-32.45,11.37-9.91,7.58-17.19,17.95-21.84,31.09,0,.2-.91,2.63-2.73,7.28l-50.65-.3,11.22-28.21c7.28-18.6,20.12-34.47,38.52-47.62Z"/>
  </g>
</svg>