<?xml version="1.0" encoding="UTF-8"?>
<svg id="Layer_2" data-name="Layer 2" xmlns="http://www.w3.org/2000/svg" viewBox="0 0 428.72 75.88">
  <defs>
    <style>
      .cls-1 {
        fill: #e8e62a;
      }
    </style>
  </defs>
  <g id="Layer_1-2" data-name="Layer 1">
    <g>
      <path class="cls-1" d="M37.55,46.08c2.42-6.84,6.21-12.23,11.36-16.17,5.15-3.94,10.78-5.92,16.88-5.92h33.45L108.56,0h-44.02c-9.68,0-19.31,3.42-28.88,10.26-9.57,6.84-16.25,15.1-20.04,24.77l-5.84,14.67,26.35.16c.95-2.42,1.42-3.68,1.42-3.79Z"/>
      <path class="cls-1" d="M97.99,27.14h-25.56c-.63,1.47-.95,2.32-.95,2.52-5.58,15.78-16.99,23.57-34.24,23.35H8.52L0,75.74h43.87c9.57,0,19.14-3.44,28.72-10.34,9.57-6.89,16.25-15.12,20.04-24.69l5.37-13.57Z"/>
      <path class="cls-1" d="M223.36,37.87c2.15-5.57,4.58-11.86,7.26-18.86,2.68-6.99,5.07-13.33,7.18-19.01h-83.47c-9.68,0-19.31,3.45-28.88,10.34-9.57,6.89-16.25,15.12-20.04,24.69l-6.78,17.52-8.84,23.2h26.19l8.52-22.72c.1-.1.55-1.26,1.34-3.47.79-2.21,1.24-3.37,1.34-3.47,2.31-6.73,5.94-12.07,10.89-16.02,4.79-3.82,10.07-5.83,15.85-6.05h4.11c-2.5,3.45-4.53,7.13-6.08,11.02l-6.94,17.52-8.84,23.2h26.19l8.68-22.72c0-.1.42-1.26,1.26-3.47.84-2.21,1.26-3.37,1.26-3.47,2.42-6.84,6.13-12.23,11.12-16.17,4.99-3.94,10.55-5.92,16.65-5.92h.95l-11.05,29.03-8.68,22.72h26.35c2.1-5.57,4.5-11.89,7.18-18.93,2.68-7.05,5.1-13.36,7.26-18.94Z"/>
      <path class="cls-1" d="M419.57,23.98l9.15-23.98h-44.34c-9.57,0-19.15,3.45-28.72,10.34-9.57,6.89-16.25,15.12-20.04,24.69l-4.73,12.15-10.89,28.56h26.67l8.68-22.88c.21-.42.5-1.16.87-2.21.09-.27.19-.53.28-.79h34.35l8.68-22.72h-26.01c3.95-2.1,8.15-3.16,12.6-3.16h33.45Z"/>
      <path class="cls-1" d="M333.18,23.52h.16l13.55-23.52h-44.88c-23.31,0-51.71,16.48-65.15,39.68l-20.92,36.21h26.02l6.61-11.45,1.74.07h33.39l-6.61,11.38h26.02l29.16-50.84.92-1.52ZM298.65,38.59h-35.14c5.31-8.38,16.13-15.07,24.62-15.07h18.92l-.81,1.52-7.59,13.55Z"/>
    </g>
  </g>
</svg>